<svg width="803" height="313" viewBox="0 0 803 313" fill="none" xmlns="http://www.w3.org/2000/svg">
<g clip-path="url(#clip0_1_2)">
<rect width="803" height="313" fill="#0D1117"/>
<path d="M149.186 105.826C150.182 106.389 151.189 106.898 152.209 107.355C153.24 107.801 154.307 108.182 155.408 108.498C156.51 108.803 157.664 109.037 158.871 109.201C160.09 109.365 161.385 109.447 162.756 109.447C164.408 109.447 165.814 109.342 166.975 109.131C168.135 108.908 169.078 108.609 169.805 108.234C170.543 107.848 171.076 107.391 171.404 106.863C171.744 106.336 171.914 105.762 171.914 105.141C171.914 104.145 171.498 103.359 170.666 102.785C169.834 102.199 168.551 101.906 166.816 101.906C166.055 101.906 165.252 101.959 164.408 102.064C163.564 102.158 162.709 102.264 161.842 102.381C160.986 102.498 160.137 102.609 159.293 102.715C158.461 102.809 157.676 102.855 156.938 102.855C155.707 102.855 154.523 102.697 153.387 102.381C152.262 102.064 151.26 101.59 150.381 100.957C149.514 100.324 148.822 99.5332 148.307 98.584C147.791 97.6348 147.533 96.5273 147.533 95.2617C147.533 94.5117 147.633 93.7676 147.832 93.0293C148.043 92.291 148.371 91.5879 148.816 90.9199C149.273 90.2402 149.859 89.6133 150.574 89.0391C151.289 88.4531 152.15 87.9492 153.158 87.5273C154.178 87.1055 155.35 86.7773 156.674 86.543C158.01 86.2969 159.527 86.1738 161.227 86.1738C162.457 86.1738 163.693 86.2441 164.936 86.3848C166.178 86.5137 167.385 86.7012 168.557 86.9473C169.74 87.1934 170.877 87.4922 171.967 87.8438C173.057 88.1836 174.07 88.5645 175.008 88.9863L172.564 93.4863C171.791 93.1465 170.959 92.8359 170.068 92.5547C169.178 92.2617 168.246 92.0098 167.273 91.7988C166.301 91.5879 165.293 91.4238 164.25 91.3066C163.219 91.1777 162.164 91.1133 161.086 91.1133C159.551 91.1133 158.285 91.2246 157.289 91.4473C156.305 91.6699 155.52 91.957 154.934 92.3086C154.348 92.6484 153.938 93.0352 153.703 93.4688C153.48 93.8906 153.369 94.3125 153.369 94.7344C153.369 95.5547 153.738 96.2285 154.477 96.7559C155.215 97.2715 156.34 97.5293 157.852 97.5293C158.461 97.5293 159.158 97.4883 159.943 97.4062C160.74 97.3125 161.572 97.2129 162.439 97.1074C163.318 97.002 164.209 96.9082 165.111 96.8262C166.025 96.7324 166.91 96.6855 167.766 96.6855C169.383 96.6855 170.812 96.8672 172.055 97.2305C173.309 97.5938 174.357 98.1152 175.201 98.7949C176.045 99.4629 176.684 100.277 177.117 101.238C177.551 102.188 177.768 103.254 177.768 104.438C177.768 106.02 177.398 107.432 176.66 108.674C175.934 109.904 174.891 110.947 173.531 111.803C172.184 112.646 170.555 113.291 168.645 113.736C166.734 114.17 164.607 114.387 162.264 114.387C160.717 114.387 159.205 114.287 157.729 114.088C156.252 113.9 154.834 113.631 153.475 113.279C152.127 112.916 150.838 112.488 149.607 111.996C148.389 111.492 147.258 110.941 146.215 110.344L149.186 105.826ZM183.252 84.8555H188.455V94.8398C189.545 94.2422 190.758 93.7676 192.094 93.416C193.441 93.0645 194.854 92.8887 196.33 92.8887C198.041 92.8887 199.576 93.1406 200.936 93.6445C202.307 94.1484 203.467 94.875 204.416 95.8242C205.365 96.7617 206.092 97.9043 206.596 99.252C207.111 100.6 207.369 102.117 207.369 103.805V114H202.184V104.016C202.184 103.031 202.025 102.135 201.709 101.326C201.393 100.506 200.93 99.8027 200.32 99.2168C199.711 98.6309 198.967 98.1797 198.088 97.8633C197.221 97.5352 196.236 97.3711 195.135 97.3711C193.811 97.3711 192.58 97.582 191.443 98.0039C190.307 98.4258 189.311 98.959 188.455 99.6035V114H183.252V84.8555ZM213.205 93.2402H218.391V103.365C218.391 104.326 218.496 105.205 218.707 106.002C218.918 106.787 219.275 107.461 219.779 108.023C220.295 108.586 220.975 109.025 221.818 109.342C222.674 109.646 223.734 109.799 225 109.799C225.598 109.799 226.201 109.734 226.811 109.605C227.432 109.477 228.023 109.301 228.586 109.078C229.148 108.844 229.67 108.568 230.15 108.252C230.643 107.936 231.064 107.59 231.416 107.215V93.2402H236.619V114H231.416V112.225C230.139 112.986 228.855 113.531 227.566 113.859C226.277 114.188 225.053 114.352 223.893 114.352C221.994 114.352 220.365 114.123 219.006 113.666C217.658 113.209 216.551 112.547 215.684 111.68C214.828 110.801 214.201 109.729 213.803 108.463C213.404 107.186 213.205 105.732 213.205 104.104V93.2402ZM243.088 84.8379H248.291V95.209C248.748 94.8926 249.287 94.5938 249.908 94.3125C250.529 94.0312 251.197 93.7852 251.912 93.5742C252.627 93.3633 253.365 93.1992 254.127 93.082C254.889 92.9531 255.65 92.8887 256.412 92.8887C258.17 92.8887 259.781 93.1465 261.246 93.6621C262.723 94.1777 263.988 94.9043 265.043 95.8418C266.098 96.7793 266.918 97.9043 267.504 99.2168C268.102 100.518 268.4 101.959 268.4 103.541C268.4 105.193 268.09 106.688 267.469 108.023C266.848 109.348 265.986 110.484 264.885 111.434C263.795 112.371 262.494 113.098 260.982 113.613C259.482 114.117 257.854 114.369 256.096 114.369C255.346 114.369 254.602 114.322 253.863 114.229C253.137 114.135 252.434 114.006 251.754 113.842C251.086 113.678 250.453 113.484 249.855 113.262C249.27 113.027 248.748 112.775 248.291 112.506V114H243.088V84.8379ZM248.291 107.479C248.818 107.9 249.375 108.258 249.961 108.551C250.547 108.844 251.145 109.084 251.754 109.271C252.363 109.459 252.979 109.6 253.6 109.693C254.221 109.775 254.824 109.816 255.41 109.816C256.605 109.816 257.666 109.658 258.592 109.342C259.529 109.014 260.314 108.568 260.947 108.006C261.592 107.443 262.084 106.781 262.424 106.02C262.764 105.258 262.934 104.432 262.934 103.541C262.934 102.709 262.764 101.924 262.424 101.186C262.096 100.447 261.615 99.8027 260.982 99.252C260.361 98.6895 259.605 98.25 258.715 97.9336C257.836 97.6055 256.846 97.4414 255.744 97.4414C255.041 97.4414 254.338 97.5117 253.635 97.6523C252.932 97.7812 252.252 97.9688 251.596 98.2148C250.951 98.4609 250.342 98.7598 249.768 99.1113C249.205 99.4629 248.713 99.8555 248.291 100.289V107.479ZM273.217 84.8555H278.42V94.8398C279.51 94.2422 280.723 93.7676 282.059 93.416C283.406 93.0645 284.818 92.8887 286.295 92.8887C288.006 92.8887 289.541 93.1406 290.9 93.6445C292.271 94.1484 293.432 94.875 294.381 95.8242C295.33 96.7617 296.057 97.9043 296.561 99.252C297.076 100.6 297.334 102.117 297.334 103.805V114H292.148V104.016C292.148 103.031 291.99 102.135 291.674 101.326C291.357 100.506 290.895 99.8027 290.285 99.2168C289.676 98.6309 288.932 98.1797 288.053 97.8633C287.186 97.5352 286.201 97.3711 285.1 97.3711C283.775 97.3711 282.545 97.582 281.408 98.0039C280.271 98.4258 279.275 98.959 278.42 99.6035V114H273.217V84.8555ZM302.186 107.461C302.186 106.465 302.402 105.557 302.836 104.736C303.27 103.916 303.92 103.213 304.787 102.627C305.654 102.029 306.732 101.572 308.021 101.256C309.322 100.928 310.834 100.764 312.557 100.764C313.834 100.764 315.176 100.857 316.582 101.045C318 101.232 319.459 101.52 320.959 101.906C320.9 101.25 320.701 100.646 320.361 100.096C320.021 99.5332 319.547 99.0527 318.938 98.6543C318.34 98.2441 317.613 97.9277 316.758 97.7051C315.914 97.4824 314.953 97.3711 313.875 97.3711C313.289 97.3711 312.645 97.4062 311.941 97.4766C311.238 97.5469 310.512 97.6523 309.762 97.793C309.012 97.9336 308.268 98.1094 307.529 98.3203C306.803 98.5312 306.123 98.7832 305.49 99.0762L303.908 94.8047C304.693 94.5234 305.531 94.2656 306.422 94.0312C307.324 93.7969 308.244 93.5977 309.182 93.4336C310.119 93.2578 311.057 93.123 311.994 93.0293C312.932 92.9355 313.84 92.8887 314.719 92.8887C318.598 92.8887 321.48 93.8789 323.367 95.8594C325.254 97.8398 326.197 100.875 326.197 104.965V114H320.994V112.049C320.455 112.365 319.863 112.664 319.219 112.945C318.586 113.227 317.895 113.473 317.145 113.684C316.395 113.895 315.586 114.059 314.719 114.176C313.863 114.305 312.955 114.369 311.994 114.369C310.377 114.369 308.953 114.193 307.723 113.842C306.504 113.49 305.484 113.004 304.664 112.383C303.844 111.762 303.223 111.035 302.801 110.203C302.391 109.359 302.186 108.445 302.186 107.461ZM307.67 107.285C307.67 107.625 307.758 107.953 307.934 108.27C308.109 108.574 308.391 108.85 308.777 109.096C309.164 109.33 309.656 109.523 310.254 109.676C310.863 109.816 311.596 109.887 312.451 109.887C313.365 109.887 314.25 109.805 315.105 109.641C315.961 109.477 316.758 109.26 317.496 108.99C318.234 108.721 318.902 108.41 319.5 108.059C320.098 107.707 320.596 107.344 320.994 106.969V106.055C320.197 105.832 319.406 105.645 318.621 105.492C317.848 105.34 317.104 105.223 316.389 105.141C315.686 105.047 315.018 104.982 314.385 104.947C313.764 104.912 313.219 104.895 312.75 104.895C311.777 104.895 310.969 104.959 310.324 105.088C309.68 105.217 309.158 105.393 308.76 105.615C308.361 105.826 308.08 106.078 307.916 106.371C307.752 106.664 307.67 106.969 307.67 107.285ZM333.229 93.2578H338.432V95.0156C339.732 94.2188 340.998 93.668 342.229 93.3633C343.471 93.0469 344.684 92.8887 345.867 92.8887C347.52 92.8887 349.037 93.1523 350.42 93.6797C351.803 94.207 352.986 95.0039 353.971 96.0703C354.732 95.4844 355.482 94.9922 356.221 94.5938C356.959 94.1836 357.697 93.8555 358.436 93.6094C359.174 93.3516 359.924 93.1699 360.686 93.0645C361.447 92.9473 362.232 92.8887 363.041 92.8887C364.74 92.8887 366.281 93.123 367.664 93.5918C369.047 94.0488 370.225 94.7344 371.197 95.6484C372.182 96.5625 372.938 97.7051 373.465 99.0762C374.004 100.436 374.273 102.012 374.273 103.805V114H369.088V104.648C369.088 103.512 368.924 102.498 368.596 101.607C368.279 100.705 367.828 99.9492 367.242 99.3398C366.668 98.7188 365.977 98.25 365.168 97.9336C364.371 97.6055 363.492 97.4414 362.531 97.4414C362.004 97.4414 361.465 97.4941 360.914 97.5996C360.363 97.6934 359.824 97.8457 359.297 98.0566C358.781 98.2676 358.295 98.5371 357.838 98.8652C357.381 99.1816 356.982 99.5566 356.643 99.9902V114H351.457V104.648C351.457 103.512 351.293 102.498 350.965 101.607C350.648 100.705 350.197 99.9492 349.611 99.3398C349.037 98.7188 348.34 98.25 347.52 97.9336C346.711 97.6055 345.82 97.4414 344.848 97.4414C344.25 97.4414 343.646 97.5059 343.037 97.6348C342.439 97.752 341.859 97.9219 341.297 98.1445C340.746 98.3672 340.225 98.6367 339.732 98.9531C339.252 99.2695 338.818 99.627 338.432 100.025V114H333.229V93.2578ZM402.803 86.5254H408.709L421.998 114H416.145L413.947 109.377H397.898L395.771 114H389.9L402.803 86.5254ZM411.75 104.789L405.809 92.3086L400.025 104.789H411.75ZM425.76 93.2578H430.963V95.0156C432.264 94.2188 433.529 93.668 434.76 93.3633C436.002 93.0469 437.215 92.8887 438.398 92.8887C440.051 92.8887 441.568 93.1523 442.951 93.6797C444.334 94.207 445.518 95.0039 446.502 96.0703C447.264 95.4844 448.014 94.9922 448.752 94.5938C449.49 94.1836 450.229 93.8555 450.967 93.6094C451.705 93.3516 452.455 93.1699 453.217 93.0645C453.979 92.9473 454.764 92.8887 455.572 92.8887C457.271 92.8887 458.812 93.123 460.195 93.5918C461.578 94.0488 462.756 94.7344 463.729 95.6484C464.713 96.5625 465.469 97.7051 465.996 99.0762C466.535 100.436 466.805 102.012 466.805 103.805V114H461.619V104.648C461.619 103.512 461.455 102.498 461.127 101.607C460.811 100.705 460.359 99.9492 459.773 99.3398C459.199 98.7188 458.508 98.25 457.699 97.9336C456.902 97.6055 456.023 97.4414 455.062 97.4414C454.535 97.4414 453.996 97.4941 453.445 97.5996C452.895 97.6934 452.355 97.8457 451.828 98.0566C451.312 98.2676 450.826 98.5371 450.369 98.8652C449.912 99.1816 449.514 99.5566 449.174 99.9902V114H443.988V104.648C443.988 103.512 443.824 102.498 443.496 101.607C443.18 100.705 442.729 99.9492 442.143 99.3398C441.568 98.7188 440.871 98.25 440.051 97.9336C439.242 97.6055 438.352 97.4414 437.379 97.4414C436.781 97.4414 436.178 97.5059 435.568 97.6348C434.971 97.752 434.391 97.9219 433.828 98.1445C433.277 98.3672 432.756 98.6367 432.264 98.9531C431.783 99.2695 431.35 99.627 430.963 100.025V114H425.76V93.2578ZM473.361 93.2578H478.564V96.2461C479.713 95.3906 480.926 94.6523 482.203 94.0312C483.48 93.4102 484.752 92.9355 486.018 92.6074L487.547 97.3711C485.543 97.5703 483.779 98.0215 482.256 98.7246C480.744 99.416 479.514 100.395 478.564 101.66V114H473.361V93.2578ZM490.447 103.559C490.447 102.152 490.734 100.811 491.309 99.5332C491.883 98.2441 492.709 97.1074 493.787 96.123C494.865 95.1387 496.184 94.3535 497.742 93.7676C499.312 93.1816 501.094 92.8887 503.086 92.8887C505.066 92.8887 506.848 93.1875 508.43 93.7852C510.023 94.3711 511.371 95.1797 512.473 96.2109C513.586 97.2422 514.436 98.4551 515.021 99.8496C515.619 101.244 515.918 102.738 515.918 104.332C515.918 104.531 515.912 104.748 515.9 104.982C515.9 105.205 515.889 105.41 515.865 105.598H496.248C496.471 106.219 496.828 106.787 497.32 107.303C497.824 107.818 498.451 108.264 499.201 108.639C499.951 109.014 500.818 109.307 501.803 109.518C502.787 109.717 503.877 109.816 505.072 109.816C506.268 109.816 507.457 109.693 508.641 109.447C509.824 109.189 510.955 108.867 512.033 108.48L513.791 112.453C513.111 112.77 512.42 113.051 511.717 113.297C511.025 113.531 510.299 113.73 509.537 113.895C508.787 114.047 507.996 114.164 507.164 114.246C506.344 114.328 505.477 114.369 504.562 114.369C502.23 114.369 500.186 114.088 498.428 113.525C496.67 112.963 495.199 112.195 494.016 111.223C492.832 110.25 491.941 109.107 491.344 107.795C490.746 106.482 490.447 105.07 490.447 103.559ZM510.398 101.537C510.211 100.963 509.918 100.43 509.52 99.9375C509.133 99.4336 508.646 99 508.061 98.6367C507.475 98.2617 506.795 97.9688 506.021 97.7578C505.248 97.5469 504.398 97.4414 503.473 97.4414C502.488 97.4414 501.592 97.5527 500.783 97.7754C499.975 97.998 499.266 98.2969 498.656 98.6719C498.047 99.0469 497.537 99.4805 497.127 99.9727C496.729 100.465 496.436 100.986 496.248 101.537H510.398ZM521.666 84.8379H526.869V114H521.666V84.8379ZM536.291 90.4277C535.775 90.4277 535.307 90.3574 534.885 90.2168C534.475 90.0645 534.123 89.8652 533.83 89.6191C533.537 89.3613 533.309 89.0684 533.145 88.7402C532.992 88.4004 532.916 88.043 532.916 87.668C532.916 87.2812 532.992 86.9238 533.145 86.5957C533.309 86.2559 533.537 85.9629 533.83 85.7168C534.123 85.4707 534.475 85.2773 534.885 85.1367C535.307 84.9844 535.775 84.9082 536.291 84.9082C536.818 84.9082 537.287 84.9844 537.697 85.1367C538.119 85.2773 538.477 85.4707 538.77 85.7168C539.062 85.9629 539.285 86.2559 539.438 86.5957C539.602 86.9238 539.684 87.2812 539.684 87.668C539.684 88.043 539.602 88.4004 539.438 88.7402C539.285 89.0684 539.062 89.3613 538.77 89.6191C538.477 89.8652 538.119 90.0645 537.697 90.2168C537.287 90.3574 536.818 90.4277 536.291 90.4277ZM533.689 93.2578H538.893V114H533.689V93.2578ZM544.588 107.461C544.588 106.465 544.805 105.557 545.238 104.736C545.672 103.916 546.322 103.213 547.189 102.627C548.057 102.029 549.135 101.572 550.424 101.256C551.725 100.928 553.236 100.764 554.959 100.764C556.236 100.764 557.578 100.857 558.984 101.045C560.402 101.232 561.861 101.52 563.361 101.906C563.303 101.25 563.104 100.646 562.764 100.096C562.424 99.5332 561.949 99.0527 561.34 98.6543C560.742 98.2441 560.016 97.9277 559.16 97.7051C558.316 97.4824 557.355 97.3711 556.277 97.3711C555.691 97.3711 555.047 97.4062 554.344 97.4766C553.641 97.5469 552.914 97.6523 552.164 97.793C551.414 97.9336 550.67 98.1094 549.932 98.3203C549.205 98.5312 548.525 98.7832 547.893 99.0762L546.311 94.8047C547.096 94.5234 547.934 94.2656 548.824 94.0312C549.727 93.7969 550.646 93.5977 551.584 93.4336C552.521 93.2578 553.459 93.123 554.396 93.0293C555.334 92.9355 556.242 92.8887 557.121 92.8887C561 92.8887 563.883 93.8789 565.77 95.8594C567.656 97.8398 568.6 100.875 568.6 104.965V114H563.396V112.049C562.857 112.365 562.266 112.664 561.621 112.945C560.988 113.227 560.297 113.473 559.547 113.684C558.797 113.895 557.988 114.059 557.121 114.176C556.266 114.305 555.357 114.369 554.396 114.369C552.779 114.369 551.355 114.193 550.125 113.842C548.906 113.49 547.887 113.004 547.066 112.383C546.246 111.762 545.625 111.035 545.203 110.203C544.793 109.359 544.588 108.445 544.588 107.461ZM550.072 107.285C550.072 107.625 550.16 107.953 550.336 108.27C550.512 108.574 550.793 108.85 551.18 109.096C551.566 109.33 552.059 109.523 552.656 109.676C553.266 109.816 553.998 109.887 554.854 109.887C555.768 109.887 556.652 109.805 557.508 109.641C558.363 109.477 559.16 109.26 559.898 108.99C560.637 108.721 561.305 108.41 561.902 108.059C562.5 107.707 562.998 107.344 563.396 106.969V106.055C562.6 105.832 561.809 105.645 561.023 105.492C560.25 105.34 559.506 105.223 558.791 105.141C558.088 105.047 557.42 104.982 556.787 104.947C556.166 104.912 555.621 104.895 555.152 104.895C554.18 104.895 553.371 104.959 552.727 105.088C552.082 105.217 551.561 105.393 551.162 105.615C550.764 105.826 550.482 106.078 550.318 106.371C550.154 106.664 550.072 106.969 550.072 107.285Z" fill="#32A488"/>
<path d="M316.881 138.459C317.434 138.771 317.994 139.055 318.561 139.309C319.133 139.556 319.726 139.768 320.338 139.943C320.95 140.113 321.591 140.243 322.262 140.334C322.939 140.425 323.658 140.471 324.42 140.471C325.338 140.471 326.119 140.412 326.764 140.295C327.408 140.171 327.932 140.005 328.336 139.797C328.746 139.582 329.042 139.328 329.225 139.035C329.413 138.742 329.508 138.423 329.508 138.078C329.508 137.525 329.277 137.089 328.814 136.77C328.352 136.444 327.639 136.281 326.676 136.281C326.253 136.281 325.807 136.311 325.338 136.369C324.869 136.421 324.394 136.48 323.912 136.545C323.437 136.61 322.965 136.672 322.496 136.73C322.034 136.783 321.598 136.809 321.188 136.809C320.504 136.809 319.846 136.721 319.215 136.545C318.59 136.369 318.033 136.105 317.545 135.754C317.063 135.402 316.679 134.963 316.393 134.436C316.106 133.908 315.963 133.293 315.963 132.59C315.963 132.173 316.018 131.76 316.129 131.35C316.246 130.939 316.428 130.549 316.676 130.178C316.93 129.8 317.255 129.452 317.652 129.133C318.049 128.807 318.528 128.527 319.088 128.293C319.654 128.059 320.305 127.876 321.041 127.746C321.783 127.609 322.626 127.541 323.57 127.541C324.254 127.541 324.941 127.58 325.631 127.658C326.321 127.73 326.992 127.834 327.643 127.971C328.3 128.107 328.932 128.273 329.537 128.469C330.143 128.658 330.706 128.869 331.227 129.104L329.869 131.604C329.439 131.415 328.977 131.242 328.482 131.086C327.988 130.923 327.47 130.783 326.93 130.666C326.389 130.549 325.829 130.458 325.25 130.393C324.677 130.321 324.091 130.285 323.492 130.285C322.639 130.285 321.936 130.347 321.383 130.471C320.836 130.594 320.4 130.754 320.074 130.949C319.749 131.138 319.521 131.353 319.391 131.594C319.267 131.828 319.205 132.062 319.205 132.297C319.205 132.753 319.41 133.127 319.82 133.42C320.23 133.706 320.855 133.85 321.695 133.85C322.034 133.85 322.421 133.827 322.857 133.781C323.3 133.729 323.762 133.674 324.244 133.615C324.732 133.557 325.227 133.505 325.729 133.459C326.236 133.407 326.728 133.381 327.203 133.381C328.102 133.381 328.896 133.482 329.586 133.684C330.283 133.885 330.865 134.175 331.334 134.553C331.803 134.924 332.158 135.376 332.398 135.91C332.639 136.438 332.76 137.03 332.76 137.688C332.76 138.566 332.555 139.351 332.145 140.041C331.741 140.725 331.161 141.304 330.406 141.779C329.658 142.248 328.753 142.606 327.691 142.854C326.63 143.094 325.449 143.215 324.146 143.215C323.287 143.215 322.447 143.16 321.627 143.049C320.807 142.945 320.019 142.795 319.264 142.6C318.515 142.398 317.799 142.16 317.115 141.887C316.438 141.607 315.81 141.301 315.23 140.969L316.881 138.459ZM335.113 137.238C335.113 136.411 335.279 135.637 335.611 134.914C335.95 134.191 336.428 133.56 337.047 133.02C337.672 132.479 338.424 132.053 339.303 131.74C340.188 131.428 341.181 131.271 342.281 131.271C343.382 131.271 344.371 131.428 345.25 131.74C346.135 132.053 346.887 132.479 347.506 133.02C348.131 133.56 348.609 134.191 348.941 134.914C349.28 135.637 349.449 136.411 349.449 137.238C349.449 138.065 349.28 138.84 348.941 139.562C348.609 140.285 348.131 140.917 347.506 141.457C346.887 141.997 346.135 142.424 345.25 142.736C344.371 143.049 343.382 143.205 342.281 143.205C341.181 143.205 340.188 143.049 339.303 142.736C338.424 142.424 337.672 141.997 337.047 141.457C336.428 140.917 335.95 140.285 335.611 139.562C335.279 138.84 335.113 138.065 335.113 137.238ZM338.15 137.238C338.15 137.701 338.242 138.14 338.424 138.557C338.613 138.967 338.883 139.331 339.234 139.65C339.592 139.963 340.025 140.214 340.533 140.402C341.048 140.585 341.63 140.676 342.281 140.676C342.932 140.676 343.512 140.585 344.02 140.402C344.534 140.214 344.967 139.963 345.318 139.65C345.676 139.331 345.947 138.967 346.129 138.557C346.318 138.14 346.412 137.701 346.412 137.238C346.412 136.776 346.318 136.337 346.129 135.92C345.947 135.503 345.676 135.139 345.318 134.826C344.967 134.507 344.534 134.257 344.02 134.074C343.512 133.885 342.932 133.791 342.281 133.791C341.63 133.791 341.048 133.885 340.533 134.074C340.025 134.257 339.592 134.507 339.234 134.826C338.883 135.139 338.613 135.503 338.424 135.92C338.242 136.337 338.15 136.776 338.15 137.238ZM353.629 133.645H351.656V131.477H353.629C353.629 130.695 353.74 130.002 353.961 129.396C354.182 128.785 354.501 128.27 354.918 127.854C355.341 127.43 355.852 127.108 356.451 126.887C357.057 126.665 357.737 126.555 358.492 126.555C359.02 126.555 359.537 126.607 360.045 126.711C360.553 126.809 361.002 126.952 361.393 127.141L360.367 129.572C360.211 129.481 359.99 129.396 359.703 129.318C359.423 129.24 359.114 129.201 358.775 129.201C358.111 129.201 357.574 129.39 357.164 129.768C356.76 130.139 356.546 130.708 356.52 131.477H360.162V133.645H356.52V143H353.629V133.645ZM364.127 133.645H361.344V131.477H364.127V127.893H367.018V131.477H369.801V133.645H367.018V143H364.127V133.645ZM370.777 131.467H374.127L377.125 138.4L378.004 140.344L379.078 137.824L376.227 131.467H379.039L380.436 134.885L381.832 131.467H384.645L381.783 137.824L382.867 140.344L383.746 138.4L386.744 131.467H390.094L384.635 143H381.49L380.436 140.773L379.381 143H376.236L370.777 131.467ZM391.568 139.367C391.568 138.814 391.689 138.309 391.93 137.854C392.171 137.398 392.532 137.007 393.014 136.682C393.495 136.35 394.094 136.096 394.811 135.92C395.533 135.738 396.373 135.646 397.33 135.646C398.04 135.646 398.785 135.699 399.566 135.803C400.354 135.907 401.165 136.066 401.998 136.281C401.965 135.917 401.855 135.581 401.666 135.275C401.477 134.963 401.214 134.696 400.875 134.475C400.543 134.247 400.139 134.071 399.664 133.947C399.195 133.824 398.661 133.762 398.062 133.762C397.737 133.762 397.379 133.781 396.988 133.82C396.598 133.859 396.194 133.918 395.777 133.996C395.361 134.074 394.947 134.172 394.537 134.289C394.133 134.406 393.756 134.546 393.404 134.709L392.525 132.336C392.962 132.18 393.427 132.036 393.922 131.906C394.423 131.776 394.934 131.665 395.455 131.574C395.976 131.477 396.497 131.402 397.018 131.35C397.538 131.298 398.043 131.271 398.531 131.271C400.686 131.271 402.288 131.822 403.336 132.922C404.384 134.022 404.908 135.708 404.908 137.98V143H402.018V141.916C401.718 142.092 401.389 142.258 401.031 142.414C400.68 142.57 400.296 142.707 399.879 142.824C399.462 142.941 399.013 143.033 398.531 143.098C398.056 143.169 397.551 143.205 397.018 143.205C396.119 143.205 395.328 143.107 394.645 142.912C393.967 142.717 393.401 142.447 392.945 142.102C392.49 141.757 392.145 141.353 391.91 140.891C391.682 140.422 391.568 139.914 391.568 139.367ZM394.615 139.27C394.615 139.458 394.664 139.641 394.762 139.816C394.859 139.986 395.016 140.139 395.23 140.275C395.445 140.406 395.719 140.513 396.051 140.598C396.389 140.676 396.796 140.715 397.271 140.715C397.779 140.715 398.271 140.669 398.746 140.578C399.221 140.487 399.664 140.367 400.074 140.217C400.484 140.067 400.855 139.895 401.188 139.699C401.52 139.504 401.796 139.302 402.018 139.094V138.586C401.575 138.462 401.135 138.358 400.699 138.273C400.27 138.189 399.856 138.124 399.459 138.078C399.068 138.026 398.697 137.99 398.346 137.971C398.001 137.951 397.698 137.941 397.438 137.941C396.897 137.941 396.448 137.977 396.09 138.049C395.732 138.12 395.442 138.218 395.221 138.342C394.999 138.459 394.843 138.599 394.752 138.762C394.661 138.924 394.615 139.094 394.615 139.27ZM408.736 131.477H411.627V133.137C412.265 132.661 412.939 132.251 413.648 131.906C414.358 131.561 415.064 131.298 415.768 131.115L416.617 133.762C415.504 133.872 414.524 134.123 413.678 134.514C412.838 134.898 412.154 135.441 411.627 136.145V143H408.736V131.477ZM418.229 137.199C418.229 136.418 418.388 135.673 418.707 134.963C419.026 134.247 419.485 133.615 420.084 133.068C420.683 132.521 421.415 132.085 422.281 131.76C423.154 131.434 424.143 131.271 425.25 131.271C426.35 131.271 427.34 131.438 428.219 131.77C429.104 132.095 429.853 132.544 430.465 133.117C431.083 133.69 431.555 134.364 431.881 135.139C432.213 135.913 432.379 136.743 432.379 137.629C432.379 137.74 432.376 137.86 432.369 137.99C432.369 138.114 432.363 138.228 432.35 138.332H421.451C421.575 138.677 421.773 138.993 422.047 139.279C422.327 139.566 422.675 139.813 423.092 140.021C423.508 140.23 423.99 140.393 424.537 140.51C425.084 140.62 425.689 140.676 426.354 140.676C427.018 140.676 427.678 140.607 428.336 140.471C428.993 140.327 429.622 140.148 430.221 139.934L431.197 142.141C430.82 142.316 430.436 142.473 430.045 142.609C429.661 142.74 429.257 142.85 428.834 142.941C428.417 143.026 427.978 143.091 427.516 143.137C427.06 143.182 426.578 143.205 426.07 143.205C424.775 143.205 423.639 143.049 422.662 142.736C421.686 142.424 420.868 141.997 420.211 141.457C419.553 140.917 419.059 140.282 418.727 139.553C418.395 138.824 418.229 138.039 418.229 137.199ZM429.312 136.076C429.208 135.757 429.046 135.461 428.824 135.188C428.609 134.908 428.339 134.667 428.014 134.465C427.688 134.257 427.311 134.094 426.881 133.977C426.451 133.859 425.979 133.801 425.465 133.801C424.918 133.801 424.42 133.863 423.971 133.986C423.521 134.11 423.128 134.276 422.789 134.484C422.451 134.693 422.167 134.934 421.939 135.207C421.718 135.48 421.555 135.77 421.451 136.076H429.312ZM441.246 137.287C441.246 136.369 441.419 135.542 441.764 134.807C442.109 134.064 442.584 133.433 443.189 132.912C443.801 132.385 444.524 131.981 445.357 131.701C446.197 131.415 447.105 131.271 448.082 131.271C448.499 131.271 448.909 131.298 449.312 131.35C449.723 131.402 450.113 131.473 450.484 131.564C450.862 131.656 451.214 131.766 451.539 131.896C451.871 132.02 452.164 132.157 452.418 132.307V126.799H455.309V143H452.418V141.916C452.164 142.092 451.865 142.258 451.52 142.414C451.174 142.57 450.803 142.707 450.406 142.824C450.009 142.941 449.596 143.033 449.166 143.098C448.743 143.169 448.323 143.205 447.906 143.205C446.93 143.205 446.031 143.062 445.211 142.775C444.397 142.489 443.697 142.085 443.111 141.564C442.525 141.044 442.066 140.422 441.734 139.699C441.409 138.97 441.246 138.166 441.246 137.287ZM444.283 137.287C444.283 137.749 444.374 138.186 444.557 138.596C444.745 139.006 445.012 139.367 445.357 139.68C445.709 139.986 446.129 140.23 446.617 140.412C447.112 140.588 447.665 140.676 448.277 140.676C448.668 140.676 449.059 140.64 449.449 140.568C449.84 140.49 450.214 140.383 450.572 140.246C450.937 140.109 451.275 139.943 451.588 139.748C451.907 139.553 452.184 139.335 452.418 139.094V135.1C452.125 134.865 451.816 134.667 451.49 134.504C451.165 134.341 450.833 134.208 450.494 134.104C450.156 133.999 449.814 133.924 449.469 133.879C449.124 133.827 448.788 133.801 448.463 133.801C447.799 133.801 447.206 133.892 446.686 134.074C446.171 134.25 445.735 134.494 445.377 134.807C445.025 135.119 444.755 135.487 444.566 135.91C444.378 136.333 444.283 136.792 444.283 137.287ZM458.307 137.199C458.307 136.418 458.466 135.673 458.785 134.963C459.104 134.247 459.563 133.615 460.162 133.068C460.761 132.521 461.493 132.085 462.359 131.76C463.232 131.434 464.221 131.271 465.328 131.271C466.428 131.271 467.418 131.438 468.297 131.77C469.182 132.095 469.931 132.544 470.543 133.117C471.161 133.69 471.633 134.364 471.959 135.139C472.291 135.913 472.457 136.743 472.457 137.629C472.457 137.74 472.454 137.86 472.447 137.99C472.447 138.114 472.441 138.228 472.428 138.332H461.529C461.653 138.677 461.852 138.993 462.125 139.279C462.405 139.566 462.753 139.813 463.17 140.021C463.587 140.23 464.068 140.393 464.615 140.51C465.162 140.62 465.768 140.676 466.432 140.676C467.096 140.676 467.757 140.607 468.414 140.471C469.072 140.327 469.7 140.148 470.299 139.934L471.275 142.141C470.898 142.316 470.514 142.473 470.123 142.609C469.739 142.74 469.335 142.85 468.912 142.941C468.495 143.026 468.056 143.091 467.594 143.137C467.138 143.182 466.656 143.205 466.148 143.205C464.853 143.205 463.717 143.049 462.74 142.736C461.764 142.424 460.947 141.997 460.289 141.457C459.632 140.917 459.137 140.282 458.805 139.553C458.473 138.824 458.307 138.039 458.307 137.199ZM469.391 136.076C469.286 135.757 469.124 135.461 468.902 135.188C468.688 134.908 468.417 134.667 468.092 134.465C467.766 134.257 467.389 134.094 466.959 133.977C466.529 133.859 466.057 133.801 465.543 133.801C464.996 133.801 464.498 133.863 464.049 133.986C463.6 134.11 463.206 134.276 462.867 134.484C462.529 134.693 462.245 134.934 462.018 135.207C461.796 135.48 461.633 135.77 461.529 136.076H469.391ZM473.98 131.467H477.33L480.328 138.4L481.109 140.344L481.891 138.4L484.889 131.467H488.238L482.779 143H479.439L473.98 131.467ZM489.713 137.199C489.713 136.418 489.872 135.673 490.191 134.963C490.51 134.247 490.969 133.615 491.568 133.068C492.167 132.521 492.9 132.085 493.766 131.76C494.638 131.434 495.628 131.271 496.734 131.271C497.835 131.271 498.824 131.438 499.703 131.77C500.589 132.095 501.337 132.544 501.949 133.117C502.568 133.69 503.04 134.364 503.365 135.139C503.697 135.913 503.863 136.743 503.863 137.629C503.863 137.74 503.86 137.86 503.854 137.99C503.854 138.114 503.847 138.228 503.834 138.332H492.936C493.059 138.677 493.258 138.993 493.531 139.279C493.811 139.566 494.16 139.813 494.576 140.021C494.993 140.23 495.475 140.393 496.021 140.51C496.568 140.62 497.174 140.676 497.838 140.676C498.502 140.676 499.163 140.607 499.82 140.471C500.478 140.327 501.106 140.148 501.705 139.934L502.682 142.141C502.304 142.316 501.92 142.473 501.529 142.609C501.145 142.74 500.742 142.85 500.318 142.941C499.902 143.026 499.462 143.091 499 143.137C498.544 143.182 498.062 143.205 497.555 143.205C496.259 143.205 495.123 143.049 494.146 142.736C493.17 142.424 492.353 141.997 491.695 141.457C491.038 140.917 490.543 140.282 490.211 139.553C489.879 138.824 489.713 138.039 489.713 137.199ZM500.797 136.076C500.693 135.757 500.53 135.461 500.309 135.188C500.094 134.908 499.824 134.667 499.498 134.465C499.173 134.257 498.795 134.094 498.365 133.977C497.936 133.859 497.464 133.801 496.949 133.801C496.402 133.801 495.904 133.863 495.455 133.986C495.006 134.11 494.612 134.276 494.273 134.484C493.935 134.693 493.652 134.934 493.424 135.207C493.202 135.48 493.04 135.77 492.936 136.076H500.797ZM507.057 126.799H509.947V143H507.057V126.799ZM512.965 137.238C512.965 136.411 513.131 135.637 513.463 134.914C513.801 134.191 514.28 133.56 514.898 133.02C515.523 132.479 516.275 132.053 517.154 131.74C518.04 131.428 519.033 131.271 520.133 131.271C521.233 131.271 522.223 131.428 523.102 131.74C523.987 132.053 524.739 132.479 525.357 133.02C525.982 133.56 526.461 134.191 526.793 134.914C527.132 135.637 527.301 136.411 527.301 137.238C527.301 138.065 527.132 138.84 526.793 139.562C526.461 140.285 525.982 140.917 525.357 141.457C524.739 141.997 523.987 142.424 523.102 142.736C522.223 143.049 521.233 143.205 520.133 143.205C519.033 143.205 518.04 143.049 517.154 142.736C516.275 142.424 515.523 141.997 514.898 141.457C514.28 140.917 513.801 140.285 513.463 139.562C513.131 138.84 512.965 138.065 512.965 137.238ZM516.002 137.238C516.002 137.701 516.093 138.14 516.275 138.557C516.464 138.967 516.734 139.331 517.086 139.65C517.444 139.963 517.877 140.214 518.385 140.402C518.899 140.585 519.482 140.676 520.133 140.676C520.784 140.676 521.363 140.585 521.871 140.402C522.385 140.214 522.818 139.963 523.17 139.65C523.528 139.331 523.798 138.967 523.98 138.557C524.169 138.14 524.264 137.701 524.264 137.238C524.264 136.776 524.169 136.337 523.98 135.92C523.798 135.503 523.528 135.139 523.17 134.826C522.818 134.507 522.385 134.257 521.871 134.074C521.363 133.885 520.784 133.791 520.133 133.791C519.482 133.791 518.899 133.885 518.385 134.074C517.877 134.257 517.444 134.507 517.086 134.826C516.734 135.139 516.464 135.503 516.275 135.92C516.093 136.337 516.002 136.776 516.002 137.238ZM533.033 147.707H530.143V131.477H533.033V132.561C533.287 132.385 533.587 132.219 533.932 132.062C534.277 131.906 534.648 131.77 535.045 131.652C535.442 131.535 535.852 131.444 536.275 131.379C536.699 131.307 537.122 131.271 537.545 131.271C538.521 131.271 539.417 131.415 540.23 131.701C541.051 131.988 541.754 132.391 542.34 132.912C542.926 133.433 543.382 134.058 543.707 134.787C544.039 135.51 544.205 136.311 544.205 137.189C544.205 138.107 544.033 138.938 543.688 139.68C543.342 140.415 542.864 141.047 542.252 141.574C541.646 142.095 540.924 142.499 540.084 142.785C539.251 143.065 538.346 143.205 537.369 143.205C536.952 143.205 536.539 143.179 536.129 143.127C535.725 143.075 535.335 143.003 534.957 142.912C534.586 142.821 534.234 142.714 533.902 142.59C533.577 142.46 533.287 142.32 533.033 142.17V147.707ZM533.033 139.377C533.326 139.611 533.635 139.81 533.961 139.973C534.286 140.135 534.618 140.269 534.957 140.373C535.296 140.477 535.637 140.555 535.982 140.607C536.327 140.653 536.663 140.676 536.988 140.676C537.652 140.676 538.242 140.588 538.756 140.412C539.277 140.23 539.713 139.982 540.064 139.67C540.423 139.357 540.696 138.99 540.885 138.566C541.074 138.143 541.168 137.684 541.168 137.189C541.168 136.727 541.074 136.291 540.885 135.881C540.702 135.471 540.436 135.113 540.084 134.807C539.739 134.494 539.319 134.25 538.824 134.074C538.336 133.892 537.786 133.801 537.174 133.801C536.783 133.801 536.393 133.84 536.002 133.918C535.611 133.99 535.234 134.094 534.869 134.23C534.511 134.367 534.173 134.533 533.854 134.729C533.541 134.924 533.268 135.142 533.033 135.383V139.377ZM546.393 137.199C546.393 136.418 546.552 135.673 546.871 134.963C547.19 134.247 547.649 133.615 548.248 133.068C548.847 132.521 549.579 132.085 550.445 131.76C551.318 131.434 552.307 131.271 553.414 131.271C554.514 131.271 555.504 131.438 556.383 131.77C557.268 132.095 558.017 132.544 558.629 133.117C559.247 133.69 559.719 134.364 560.045 135.139C560.377 135.913 560.543 136.743 560.543 137.629C560.543 137.74 560.54 137.86 560.533 137.99C560.533 138.114 560.527 138.228 560.514 138.332H549.615C549.739 138.677 549.938 138.993 550.211 139.279C550.491 139.566 550.839 139.813 551.256 140.021C551.673 140.23 552.154 140.393 552.701 140.51C553.248 140.62 553.854 140.676 554.518 140.676C555.182 140.676 555.842 140.607 556.5 140.471C557.158 140.327 557.786 140.148 558.385 139.934L559.361 142.141C558.984 142.316 558.6 142.473 558.209 142.609C557.825 142.74 557.421 142.85 556.998 142.941C556.581 143.026 556.142 143.091 555.68 143.137C555.224 143.182 554.742 143.205 554.234 143.205C552.939 143.205 551.803 143.049 550.826 142.736C549.85 142.424 549.033 141.997 548.375 141.457C547.717 140.917 547.223 140.282 546.891 139.553C546.559 138.824 546.393 138.039 546.393 137.199ZM557.477 136.076C557.372 135.757 557.21 135.461 556.988 135.188C556.773 134.908 556.503 134.667 556.178 134.465C555.852 134.257 555.475 134.094 555.045 133.977C554.615 133.859 554.143 133.801 553.629 133.801C553.082 133.801 552.584 133.863 552.135 133.986C551.686 134.11 551.292 134.276 550.953 134.484C550.615 134.693 550.331 134.934 550.104 135.207C549.882 135.48 549.719 135.77 549.615 136.076H557.477ZM563.658 131.477H566.549V133.137C567.187 132.661 567.861 132.251 568.57 131.906C569.28 131.561 569.986 131.298 570.689 131.115L571.539 133.762C570.426 133.872 569.446 134.123 568.6 134.514C567.76 134.898 567.076 135.441 566.549 136.145V143H563.658V131.477Z" fill="#5B6366"/>
<path d="M393.602 265.684H403.258C404.664 265.684 405.883 265.836 406.914 266.141C407.945 266.445 408.801 266.887 409.48 267.465C410.16 268.035 410.664 268.734 410.992 269.562C411.328 270.391 411.496 271.324 411.496 272.363C411.496 273.34 411.332 274.242 411.004 275.07C410.676 275.898 410.172 276.617 409.492 277.227C408.82 277.828 407.969 278.301 406.938 278.645C405.906 278.98 404.688 279.148 403.281 279.148L397.316 279.137V284H393.602V265.684ZM403.352 275.926C404.055 275.926 404.668 275.844 405.191 275.68C405.723 275.508 406.164 275.27 406.516 274.965C406.875 274.652 407.141 274.277 407.312 273.84C407.492 273.395 407.582 272.902 407.582 272.363C407.582 271.277 407.227 270.434 406.516 269.832C405.812 269.223 404.758 268.918 403.352 268.918H397.316V275.926H403.352ZM415.129 270.172H418.598V272.164C419.363 271.594 420.172 271.102 421.023 270.688C421.875 270.273 422.723 269.957 423.566 269.738L424.586 272.914C423.25 273.047 422.074 273.348 421.059 273.816C420.051 274.277 419.23 274.93 418.598 275.773V284H415.129V270.172ZM426.344 277.086C426.344 276.094 426.543 275.164 426.941 274.297C427.348 273.43 427.922 272.672 428.664 272.023C429.414 271.375 430.316 270.863 431.371 270.488C432.434 270.113 433.625 269.926 434.945 269.926C436.266 269.926 437.453 270.113 438.508 270.488C439.57 270.863 440.473 271.375 441.215 272.023C441.965 272.672 442.539 273.43 442.938 274.297C443.344 275.164 443.547 276.094 443.547 277.086C443.547 278.078 443.344 279.008 442.938 279.875C442.539 280.742 441.965 281.5 441.215 282.148C440.473 282.797 439.57 283.309 438.508 283.684C437.453 284.059 436.266 284.246 434.945 284.246C433.625 284.246 432.434 284.059 431.371 283.684C430.316 283.309 429.414 282.797 428.664 282.148C427.922 281.5 427.348 280.742 426.941 279.875C426.543 279.008 426.344 278.078 426.344 277.086ZM429.988 277.086C429.988 277.641 430.098 278.168 430.316 278.668C430.543 279.16 430.867 279.598 431.289 279.98C431.719 280.355 432.238 280.656 432.848 280.883C433.465 281.102 434.164 281.211 434.945 281.211C435.727 281.211 436.422 281.102 437.031 280.883C437.648 280.656 438.168 280.355 438.59 279.98C439.02 279.598 439.344 279.16 439.562 278.668C439.789 278.168 439.902 277.641 439.902 277.086C439.902 276.531 439.789 276.004 439.562 275.504C439.344 275.004 439.02 274.566 438.59 274.191C438.168 273.809 437.648 273.508 437.031 273.289C436.422 273.062 435.727 272.949 434.945 272.949C434.164 272.949 433.465 273.062 432.848 273.289C432.238 273.508 431.719 273.809 431.289 274.191C430.867 274.566 430.543 275.004 430.316 275.504C430.098 276.004 429.988 276.531 429.988 277.086ZM448.879 268.285C448.535 268.285 448.223 268.238 447.941 268.145C447.668 268.043 447.434 267.91 447.238 267.746C447.043 267.574 446.891 267.379 446.781 267.16C446.68 266.934 446.629 266.695 446.629 266.445C446.629 266.188 446.68 265.949 446.781 265.73C446.891 265.504 447.043 265.309 447.238 265.145C447.434 264.98 447.668 264.852 447.941 264.758C448.223 264.656 448.535 264.605 448.879 264.605C449.23 264.605 449.543 264.656 449.816 264.758C450.098 264.852 450.336 264.98 450.531 265.145C450.727 265.309 450.875 265.504 450.977 265.73C451.086 265.949 451.141 266.188 451.141 266.445C451.141 266.695 451.086 266.934 450.977 267.16C450.875 267.379 450.727 267.574 450.531 267.746C450.336 267.91 450.098 268.043 449.816 268.145C449.543 268.238 449.23 268.285 448.879 268.285ZM447.145 270.172H450.613V281.926C450.613 282.613 450.582 283.238 450.52 283.801C450.465 284.355 450.367 284.871 450.227 285.348C450.094 285.824 449.91 286.27 449.676 286.684C449.449 287.098 449.164 287.496 448.82 287.879C448.477 288.262 448.066 288.641 447.59 289.016C447.113 289.398 446.562 289.797 445.938 290.211L444.66 287.27C445.145 286.91 445.547 286.555 445.867 286.203C446.188 285.852 446.441 285.484 446.629 285.102C446.816 284.719 446.949 284.309 447.027 283.871C447.105 283.434 447.145 282.953 447.145 282.43V270.172ZM454.41 277.039C454.41 276.102 454.602 275.207 454.984 274.355C455.367 273.496 455.918 272.738 456.637 272.082C457.355 271.426 458.234 270.902 459.273 270.512C460.32 270.121 461.508 269.926 462.836 269.926C464.156 269.926 465.344 270.125 466.398 270.523C467.461 270.914 468.359 271.453 469.094 272.141C469.836 272.828 470.402 273.637 470.793 274.566C471.191 275.496 471.391 276.492 471.391 277.555C471.391 277.688 471.387 277.832 471.379 277.988C471.379 278.137 471.371 278.273 471.355 278.398H458.277C458.426 278.812 458.664 279.191 458.992 279.535C459.328 279.879 459.746 280.176 460.246 280.426C460.746 280.676 461.324 280.871 461.98 281.012C462.637 281.145 463.363 281.211 464.16 281.211C464.957 281.211 465.75 281.129 466.539 280.965C467.328 280.793 468.082 280.578 468.801 280.32L469.973 282.969C469.52 283.18 469.059 283.367 468.59 283.531C468.129 283.688 467.645 283.82 467.137 283.93C466.637 284.031 466.109 284.109 465.555 284.164C465.008 284.219 464.43 284.246 463.82 284.246C462.266 284.246 460.902 284.059 459.73 283.684C458.559 283.309 457.578 282.797 456.789 282.148C456 281.5 455.406 280.738 455.008 279.863C454.609 278.988 454.41 278.047 454.41 277.039ZM467.711 275.691C467.586 275.309 467.391 274.953 467.125 274.625C466.867 274.289 466.543 274 466.152 273.758C465.762 273.508 465.309 273.312 464.793 273.172C464.277 273.031 463.711 272.961 463.094 272.961C462.438 272.961 461.84 273.035 461.301 273.184C460.762 273.332 460.289 273.531 459.883 273.781C459.477 274.031 459.137 274.32 458.863 274.648C458.598 274.977 458.402 275.324 458.277 275.691H467.711ZM474.297 277.121C474.297 276.105 474.48 275.16 474.848 274.285C475.223 273.402 475.766 272.641 476.477 272C477.195 271.352 478.07 270.844 479.102 270.477C480.141 270.109 481.324 269.926 482.652 269.926C483.23 269.926 483.812 269.961 484.398 270.031C484.984 270.102 485.547 270.203 486.086 270.336C486.633 270.461 487.145 270.613 487.621 270.793C488.098 270.965 488.512 271.156 488.863 271.367L487.258 273.98C486.5 273.629 485.781 273.371 485.102 273.207C484.43 273.043 483.746 272.961 483.051 272.961C482.254 272.961 481.539 273.066 480.906 273.277C480.273 273.48 479.734 273.77 479.289 274.145C478.852 274.512 478.516 274.949 478.281 275.457C478.055 275.957 477.941 276.504 477.941 277.098C477.941 277.691 478.062 278.242 478.305 278.75C478.555 279.25 478.902 279.684 479.348 280.051C479.801 280.41 480.344 280.695 480.977 280.906C481.617 281.109 482.328 281.211 483.109 281.211C483.969 281.211 484.777 281.09 485.535 280.848C486.301 280.605 487.012 280.281 487.668 279.875L489.273 282.488C488.859 282.738 488.41 282.973 487.926 283.191C487.441 283.402 486.922 283.586 486.367 283.742C485.82 283.898 485.242 284.02 484.633 284.105C484.031 284.199 483.406 284.246 482.758 284.246C481.438 284.246 480.254 284.066 479.207 283.707C478.16 283.348 477.273 282.852 476.547 282.219C475.82 281.578 475.262 280.824 474.871 279.957C474.488 279.09 474.297 278.145 474.297 277.121ZM495.098 272.773H491.758V270.172H495.098V265.871H498.566V270.172H501.906V272.773H498.566V284H495.098V272.773ZM505.539 279.758C506.477 280.32 507.508 280.734 508.633 281C509.758 281.266 510.91 281.398 512.09 281.398C512.887 281.398 513.551 281.344 514.082 281.234C514.613 281.125 515.039 280.984 515.359 280.812C515.68 280.641 515.906 280.445 516.039 280.227C516.172 280.008 516.238 279.785 516.238 279.559C516.238 279.23 516.094 278.949 515.805 278.715C515.523 278.48 515.055 278.363 514.398 278.363C514.094 278.363 513.766 278.383 513.414 278.422C513.062 278.461 512.691 278.504 512.301 278.551C511.918 278.59 511.516 278.629 511.094 278.668C510.68 278.707 510.258 278.727 509.828 278.727C508.891 278.727 508.09 278.625 507.426 278.422C506.77 278.219 506.234 277.941 505.82 277.59C505.406 277.238 505.105 276.824 504.918 276.348C504.73 275.863 504.637 275.344 504.637 274.789C504.637 274.086 504.801 273.438 505.129 272.844C505.457 272.25 505.926 271.738 506.535 271.309C507.145 270.871 507.879 270.531 508.738 270.289C509.605 270.047 510.57 269.926 511.633 269.926C512.188 269.926 512.766 269.961 513.367 270.031C513.977 270.094 514.574 270.18 515.16 270.289C515.746 270.398 516.309 270.527 516.848 270.676C517.387 270.816 517.863 270.969 518.277 271.133L517.188 273.828C516.305 273.5 515.422 273.242 514.539 273.055C513.664 272.859 512.762 272.762 511.832 272.762C511.184 272.762 510.633 272.812 510.18 272.914C509.734 273.008 509.371 273.137 509.09 273.301C508.809 273.457 508.602 273.641 508.469 273.852C508.344 274.055 508.281 274.27 508.281 274.496C508.281 274.66 508.312 274.809 508.375 274.941C508.445 275.074 508.555 275.191 508.703 275.293C508.859 275.387 509.059 275.461 509.301 275.516C509.551 275.562 509.855 275.586 510.215 275.586C510.543 275.586 510.891 275.566 511.258 275.527C511.625 275.488 512.008 275.449 512.406 275.41C512.805 275.363 513.215 275.32 513.637 275.281C514.066 275.242 514.504 275.223 514.949 275.223C515.777 275.223 516.5 275.32 517.117 275.516C517.742 275.711 518.258 275.984 518.664 276.336C519.07 276.688 519.375 277.102 519.578 277.578C519.781 278.055 519.883 278.574 519.883 279.137C519.883 279.863 519.715 280.539 519.379 281.164C519.043 281.789 518.543 282.332 517.879 282.793C517.215 283.246 516.387 283.602 515.395 283.859C514.41 284.117 513.27 284.246 511.973 284.246C511.176 284.246 510.406 284.195 509.664 284.094C508.922 284 508.215 283.871 507.543 283.707C506.871 283.535 506.238 283.336 505.645 283.109C505.059 282.883 504.523 282.641 504.039 282.383L505.539 279.758ZM523.082 281.961C523.082 281.648 523.148 281.355 523.281 281.082C523.414 280.809 523.598 280.57 523.832 280.367C524.074 280.156 524.363 279.992 524.699 279.875C525.043 279.758 525.426 279.699 525.848 279.699C526.301 279.699 526.715 279.773 527.09 279.922C527.473 280.062 527.801 280.27 528.074 280.543C528.348 280.816 528.559 281.152 528.707 281.551C528.863 281.941 528.941 282.383 528.941 282.875C528.941 283.984 528.559 285.047 527.793 286.062C527.035 287.086 525.93 287.992 524.477 288.781L523.07 286.789C523.453 286.586 523.789 286.383 524.078 286.18C524.367 285.984 524.621 285.785 524.84 285.582C525.059 285.379 525.246 285.168 525.402 284.949C525.566 284.73 525.711 284.496 525.836 284.246C525.422 284.246 525.043 284.184 524.699 284.059C524.363 283.941 524.074 283.781 523.832 283.578C523.59 283.375 523.402 283.137 523.27 282.863C523.145 282.582 523.082 282.281 523.082 281.961ZM541.469 265.684H551.254C552.449 265.684 553.488 265.812 554.371 266.07C555.262 266.32 556 266.668 556.586 267.113C557.172 267.559 557.605 268.09 557.887 268.707C558.176 269.316 558.32 269.977 558.32 270.688C558.32 271.852 557.953 272.871 557.219 273.746C558.062 274.246 558.691 274.895 559.105 275.691C559.52 276.488 559.727 277.395 559.727 278.41C559.727 279.262 559.582 280.031 559.293 280.719C559.012 281.406 558.578 281.996 557.992 282.488C557.414 282.973 556.68 283.348 555.789 283.613C554.906 283.871 553.863 284 552.66 284H541.469V265.684ZM552.684 272.715C553.004 272.715 553.316 272.727 553.621 272.75C554.145 272.25 554.406 271.68 554.406 271.039C554.406 270.375 554.145 269.863 553.621 269.504C553.105 269.137 552.348 268.953 551.348 268.953H545.184V272.715H552.684ZM552.754 280.766C553.754 280.766 554.512 280.551 555.027 280.121C555.551 279.691 555.812 279.086 555.812 278.305C555.812 277.523 555.551 276.914 555.027 276.477C554.512 276.039 553.754 275.82 552.754 275.82H545.184V280.766H552.754ZM563.16 264.559H566.629V284H563.16V264.559ZM570.25 277.086C570.25 276.094 570.449 275.164 570.848 274.297C571.254 273.43 571.828 272.672 572.57 272.023C573.32 271.375 574.223 270.863 575.277 270.488C576.34 270.113 577.531 269.926 578.852 269.926C580.172 269.926 581.359 270.113 582.414 270.488C583.477 270.863 584.379 271.375 585.121 272.023C585.871 272.672 586.445 273.43 586.844 274.297C587.25 275.164 587.453 276.094 587.453 277.086C587.453 278.078 587.25 279.008 586.844 279.875C586.445 280.742 585.871 281.5 585.121 282.148C584.379 282.797 583.477 283.309 582.414 283.684C581.359 284.059 580.172 284.246 578.852 284.246C577.531 284.246 576.34 284.059 575.277 283.684C574.223 283.309 573.32 282.797 572.57 282.148C571.828 281.5 571.254 280.742 570.848 279.875C570.449 279.008 570.25 278.078 570.25 277.086ZM573.895 277.086C573.895 277.641 574.004 278.168 574.223 278.668C574.449 279.16 574.773 279.598 575.195 279.98C575.625 280.355 576.145 280.656 576.754 280.883C577.371 281.102 578.07 281.211 578.852 281.211C579.633 281.211 580.328 281.102 580.938 280.883C581.555 280.656 582.074 280.355 582.496 279.98C582.926 279.598 583.25 279.16 583.469 278.668C583.695 278.168 583.809 277.641 583.809 277.086C583.809 276.531 583.695 276.004 583.469 275.504C583.25 275.004 582.926 274.566 582.496 274.191C582.074 273.809 581.555 273.508 580.938 273.289C580.328 273.062 579.633 272.949 578.852 272.949C578.07 272.949 577.371 273.062 576.754 273.289C576.145 273.508 575.625 273.809 575.195 274.191C574.773 274.566 574.449 275.004 574.223 275.504C574.004 276.004 573.895 276.531 573.895 277.086ZM593.125 286.344C593.562 286.5 594.008 286.629 594.461 286.73C594.914 286.84 595.352 286.926 595.773 286.988C596.203 287.059 596.613 287.105 597.004 287.129C597.395 287.16 597.742 287.176 598.047 287.176C598.969 287.176 599.77 287.062 600.449 286.836C601.137 286.617 601.707 286.32 602.16 285.945C602.621 285.57 602.965 285.133 603.191 284.633C603.418 284.141 603.531 283.617 603.531 283.062V282.465C603.234 282.668 602.887 282.863 602.488 283.051C602.09 283.238 601.652 283.402 601.176 283.543C600.699 283.684 600.191 283.797 599.652 283.883C599.121 283.969 598.57 284.012 598 284.012C596.867 284.012 595.82 283.844 594.859 283.508C593.898 283.164 593.066 282.688 592.363 282.078C591.66 281.461 591.109 280.723 590.711 279.863C590.32 279.004 590.125 278.051 590.125 277.004C590.125 275.934 590.332 274.965 590.746 274.098C591.16 273.223 591.73 272.477 592.457 271.859C593.191 271.242 594.059 270.766 595.059 270.43C596.059 270.094 597.145 269.926 598.316 269.926C598.816 269.926 599.312 269.957 599.805 270.02C600.297 270.082 600.766 270.168 601.211 270.277C601.664 270.387 602.086 270.52 602.477 270.676C602.875 270.824 603.227 270.988 603.531 271.168V270.172H607V282.418C607 283.676 606.809 284.789 606.426 285.758C606.043 286.727 605.48 287.539 604.738 288.195C604.004 288.859 603.09 289.359 601.996 289.695C600.902 290.039 599.648 290.211 598.234 290.211C597.727 290.211 597.199 290.188 596.652 290.141C596.105 290.102 595.555 290.039 595 289.953C594.453 289.875 593.91 289.777 593.371 289.66C592.84 289.551 592.328 289.422 591.836 289.273L593.125 286.344ZM593.77 276.969C593.77 277.523 593.879 278.047 594.098 278.539C594.324 279.023 594.645 279.449 595.059 279.816C595.473 280.176 595.973 280.461 596.559 280.672C597.145 280.875 597.805 280.977 598.539 280.977C599.016 280.977 599.488 280.934 599.957 280.848C600.434 280.754 600.887 280.625 601.316 280.461C601.754 280.297 602.16 280.098 602.535 279.863C602.918 279.629 603.25 279.367 603.531 279.078V274.52C603.18 274.238 602.809 274 602.418 273.805C602.027 273.609 601.629 273.449 601.223 273.324C600.816 273.199 600.406 273.109 599.992 273.055C599.578 272.992 599.176 272.961 598.785 272.961C597.988 272.961 597.277 273.066 596.652 273.277C596.035 273.488 595.512 273.777 595.082 274.145C594.66 274.504 594.336 274.926 594.109 275.41C593.883 275.895 593.77 276.414 593.77 276.969ZM611.5 279.758C612.438 280.32 613.469 280.734 614.594 281C615.719 281.266 616.871 281.398 618.051 281.398C618.848 281.398 619.512 281.344 620.043 281.234C620.574 281.125 621 280.984 621.32 280.812C621.641 280.641 621.867 280.445 622 280.227C622.133 280.008 622.199 279.785 622.199 279.559C622.199 279.23 622.055 278.949 621.766 278.715C621.484 278.48 621.016 278.363 620.359 278.363C620.055 278.363 619.727 278.383 619.375 278.422C619.023 278.461 618.652 278.504 618.262 278.551C617.879 278.59 617.477 278.629 617.055 278.668C616.641 278.707 616.219 278.727 615.789 278.727C614.852 278.727 614.051 278.625 613.387 278.422C612.73 278.219 612.195 277.941 611.781 277.59C611.367 277.238 611.066 276.824 610.879 276.348C610.691 275.863 610.598 275.344 610.598 274.789C610.598 274.086 610.762 273.438 611.09 272.844C611.418 272.25 611.887 271.738 612.496 271.309C613.105 270.871 613.84 270.531 614.699 270.289C615.566 270.047 616.531 269.926 617.594 269.926C618.148 269.926 618.727 269.961 619.328 270.031C619.938 270.094 620.535 270.18 621.121 270.289C621.707 270.398 622.27 270.527 622.809 270.676C623.348 270.816 623.824 270.969 624.238 271.133L623.148 273.828C622.266 273.5 621.383 273.242 620.5 273.055C619.625 272.859 618.723 272.762 617.793 272.762C617.145 272.762 616.594 272.812 616.141 272.914C615.695 273.008 615.332 273.137 615.051 273.301C614.77 273.457 614.562 273.641 614.43 273.852C614.305 274.055 614.242 274.27 614.242 274.496C614.242 274.66 614.273 274.809 614.336 274.941C614.406 275.074 614.516 275.191 614.664 275.293C614.82 275.387 615.02 275.461 615.262 275.516C615.512 275.562 615.816 275.586 616.176 275.586C616.504 275.586 616.852 275.566 617.219 275.527C617.586 275.488 617.969 275.449 618.367 275.41C618.766 275.363 619.176 275.32 619.598 275.281C620.027 275.242 620.465 275.223 620.91 275.223C621.738 275.223 622.461 275.32 623.078 275.516C623.703 275.711 624.219 275.984 624.625 276.336C625.031 276.688 625.336 277.102 625.539 277.578C625.742 278.055 625.844 278.574 625.844 279.137C625.844 279.863 625.676 280.539 625.34 281.164C625.004 281.789 624.504 282.332 623.84 282.793C623.176 283.246 622.348 283.602 621.355 283.859C620.371 284.117 619.23 284.246 617.934 284.246C617.137 284.246 616.367 284.195 615.625 284.094C614.883 284 614.176 283.871 613.504 283.707C612.832 283.535 612.199 283.336 611.605 283.109C611.02 282.883 610.484 282.641 610 282.383L611.5 279.758ZM636.73 278.164C636.73 277.781 636.77 277.402 636.848 277.027C636.926 276.652 637.059 276.262 637.246 275.855C637.441 275.449 637.695 275.023 638.008 274.578C638.328 274.125 638.73 273.629 639.215 273.09C638.941 272.645 638.742 272.211 638.617 271.789C638.5 271.359 638.441 270.922 638.441 270.477C638.441 269.742 638.59 269.066 638.887 268.449C639.184 267.832 639.602 267.301 640.141 266.855C640.68 266.402 641.324 266.051 642.074 265.801C642.824 265.551 643.652 265.426 644.559 265.426C645.527 265.426 646.398 265.566 647.172 265.848C647.953 266.129 648.617 266.508 649.164 266.984C649.711 267.461 650.129 268.02 650.418 268.66C650.715 269.293 650.863 269.961 650.863 270.664C650.863 271.094 650.805 271.527 650.688 271.965C650.578 272.395 650.41 272.844 650.184 273.312C649.957 273.773 649.676 274.258 649.34 274.766C649.004 275.273 648.613 275.816 648.168 276.395L650.945 278.469C651.547 277.758 652.051 276.949 652.457 276.043C652.871 275.129 653.191 274.141 653.418 273.078H652.234V270.172H659.969V273.078H656.5C656.227 274.422 655.852 275.707 655.375 276.934C654.898 278.152 654.273 279.262 653.5 280.262C653.859 280.465 654.199 280.625 654.52 280.742C654.848 280.852 655.164 280.93 655.469 280.977C655.773 281.023 656.07 281.043 656.359 281.035C656.656 281.027 656.961 281 657.273 280.953L658.328 283.988C657.656 284.121 657.023 284.207 656.43 284.246C655.844 284.285 655.258 284.258 654.672 284.164C654.094 284.078 653.496 283.914 652.879 283.672C652.27 283.43 651.609 283.086 650.898 282.641C650.086 283.148 649.176 283.543 648.168 283.824C647.168 284.105 646.039 284.246 644.781 284.246C643.445 284.246 642.273 284.086 641.266 283.766C640.258 283.445 639.418 283.012 638.746 282.465C638.074 281.91 637.57 281.266 637.234 280.531C636.898 279.789 636.73 279 636.73 278.164ZM645.66 274.508C646.223 273.766 646.621 273.109 646.855 272.539C647.098 271.961 647.219 271.414 647.219 270.898C647.219 270.469 647.145 270.102 646.996 269.797C646.855 269.484 646.664 269.23 646.422 269.035C646.18 268.84 645.895 268.695 645.566 268.602C645.246 268.508 644.906 268.461 644.547 268.461C644.156 268.461 643.809 268.512 643.504 268.613C643.199 268.707 642.941 268.84 642.73 269.012C642.52 269.184 642.359 269.387 642.25 269.621C642.141 269.855 642.086 270.109 642.086 270.383C642.086 270.586 642.121 270.805 642.191 271.039C642.27 271.266 642.406 271.52 642.602 271.801C642.805 272.082 643.082 272.391 643.434 272.727C643.793 273.062 644.25 273.441 644.805 273.863L645.66 274.508ZM640.375 277.906C640.375 278.344 640.465 278.762 640.645 279.16C640.832 279.559 641.113 279.91 641.488 280.215C641.871 280.52 642.348 280.762 642.918 280.941C643.496 281.121 644.176 281.211 644.957 281.211C645.535 281.211 646.082 281.16 646.598 281.059C647.113 280.957 647.605 280.809 648.074 280.613L642.355 276.266C642.176 276.133 642.004 276 641.84 275.867C641.676 275.734 641.516 275.602 641.359 275.469C641.047 275.859 640.805 276.254 640.633 276.652C640.461 277.043 640.375 277.461 640.375 277.906ZM671.395 265.684H675.109L681.766 272.363L688.422 265.684H692.137V284H688.422V270.828L681.766 277.238L675.109 270.828V284H671.395V265.684ZM696.918 270.16H700.375V276.91C700.375 277.551 700.445 278.137 700.586 278.668C700.727 279.191 700.965 279.641 701.301 280.016C701.645 280.391 702.098 280.684 702.66 280.895C703.23 281.098 703.938 281.199 704.781 281.199C705.18 281.199 705.582 281.156 705.988 281.07C706.402 280.984 706.797 280.867 707.172 280.719C707.547 280.562 707.895 280.379 708.215 280.168C708.543 279.957 708.824 279.727 709.059 279.477V270.16H712.527V284H709.059V282.816C708.207 283.324 707.352 283.688 706.492 283.906C705.633 284.125 704.816 284.234 704.043 284.234C702.777 284.234 701.691 284.082 700.785 283.777C699.887 283.473 699.148 283.031 698.57 282.453C698 281.867 697.582 281.152 697.316 280.309C697.051 279.457 696.918 278.488 696.918 277.402V270.16ZM717.484 279.758C718.422 280.32 719.453 280.734 720.578 281C721.703 281.266 722.855 281.398 724.035 281.398C724.832 281.398 725.496 281.344 726.027 281.234C726.559 281.125 726.984 280.984 727.305 280.812C727.625 280.641 727.852 280.445 727.984 280.227C728.117 280.008 728.184 279.785 728.184 279.559C728.184 279.23 728.039 278.949 727.75 278.715C727.469 278.48 727 278.363 726.344 278.363C726.039 278.363 725.711 278.383 725.359 278.422C725.008 278.461 724.637 278.504 724.246 278.551C723.863 278.59 723.461 278.629 723.039 278.668C722.625 278.707 722.203 278.727 721.773 278.727C720.836 278.727 720.035 278.625 719.371 278.422C718.715 278.219 718.18 277.941 717.766 277.59C717.352 277.238 717.051 276.824 716.863 276.348C716.676 275.863 716.582 275.344 716.582 274.789C716.582 274.086 716.746 273.438 717.074 272.844C717.402 272.25 717.871 271.738 718.48 271.309C719.09 270.871 719.824 270.531 720.684 270.289C721.551 270.047 722.516 269.926 723.578 269.926C724.133 269.926 724.711 269.961 725.312 270.031C725.922 270.094 726.52 270.18 727.105 270.289C727.691 270.398 728.254 270.527 728.793 270.676C729.332 270.816 729.809 270.969 730.223 271.133L729.133 273.828C728.25 273.5 727.367 273.242 726.484 273.055C725.609 272.859 724.707 272.762 723.777 272.762C723.129 272.762 722.578 272.812 722.125 272.914C721.68 273.008 721.316 273.137 721.035 273.301C720.754 273.457 720.547 273.641 720.414 273.852C720.289 274.055 720.227 274.27 720.227 274.496C720.227 274.66 720.258 274.809 720.32 274.941C720.391 275.074 720.5 275.191 720.648 275.293C720.805 275.387 721.004 275.461 721.246 275.516C721.496 275.562 721.801 275.586 722.16 275.586C722.488 275.586 722.836 275.566 723.203 275.527C723.57 275.488 723.953 275.449 724.352 275.41C724.75 275.363 725.16 275.32 725.582 275.281C726.012 275.242 726.449 275.223 726.895 275.223C727.723 275.223 728.445 275.32 729.062 275.516C729.688 275.711 730.203 275.984 730.609 276.336C731.016 276.688 731.32 277.102 731.523 277.578C731.727 278.055 731.828 278.574 731.828 279.137C731.828 279.863 731.66 280.539 731.324 281.164C730.988 281.789 730.488 282.332 729.824 282.793C729.16 283.246 728.332 283.602 727.34 283.859C726.355 284.117 725.215 284.246 723.918 284.246C723.121 284.246 722.352 284.195 721.609 284.094C720.867 284 720.16 283.871 719.488 283.707C718.816 283.535 718.184 283.336 717.59 283.109C717.004 282.883 716.469 282.641 715.984 282.383L717.484 279.758ZM736.785 268.285C736.441 268.285 736.129 268.238 735.848 268.145C735.574 268.043 735.34 267.91 735.145 267.746C734.949 267.574 734.797 267.379 734.688 267.16C734.586 266.934 734.535 266.695 734.535 266.445C734.535 266.188 734.586 265.949 734.688 265.73C734.797 265.504 734.949 265.309 735.145 265.145C735.34 264.98 735.574 264.852 735.848 264.758C736.129 264.656 736.441 264.605 736.785 264.605C737.137 264.605 737.449 264.656 737.723 264.758C738.004 264.852 738.242 264.98 738.438 265.145C738.633 265.309 738.781 265.504 738.883 265.73C738.992 265.949 739.047 266.188 739.047 266.445C739.047 266.695 738.992 266.934 738.883 267.16C738.781 267.379 738.633 267.574 738.438 267.746C738.242 267.91 738.004 268.043 737.723 268.145C737.449 268.238 737.137 268.285 736.785 268.285ZM735.051 270.172H738.52V284H735.051V270.172ZM742.141 277.121C742.141 276.105 742.324 275.16 742.691 274.285C743.066 273.402 743.609 272.641 744.32 272C745.039 271.352 745.914 270.844 746.945 270.477C747.984 270.109 749.168 269.926 750.496 269.926C751.074 269.926 751.656 269.961 752.242 270.031C752.828 270.102 753.391 270.203 753.93 270.336C754.477 270.461 754.988 270.613 755.465 270.793C755.941 270.965 756.355 271.156 756.707 271.367L755.102 273.98C754.344 273.629 753.625 273.371 752.945 273.207C752.273 273.043 751.59 272.961 750.895 272.961C750.098 272.961 749.383 273.066 748.75 273.277C748.117 273.48 747.578 273.77 747.133 274.145C746.695 274.512 746.359 274.949 746.125 275.457C745.898 275.957 745.785 276.504 745.785 277.098C745.785 277.691 745.906 278.242 746.148 278.75C746.398 279.25 746.746 279.684 747.191 280.051C747.645 280.41 748.188 280.695 748.82 280.906C749.461 281.109 750.172 281.211 750.953 281.211C751.812 281.211 752.621 281.09 753.379 280.848C754.145 280.605 754.855 280.281 755.512 279.875L757.117 282.488C756.703 282.738 756.254 282.973 755.77 283.191C755.285 283.402 754.766 283.586 754.211 283.742C753.664 283.898 753.086 284.02 752.477 284.105C751.875 284.199 751.25 284.246 750.602 284.246C749.281 284.246 748.098 284.066 747.051 283.707C746.004 283.348 745.117 282.852 744.391 282.219C743.664 281.578 743.105 280.824 742.715 279.957C742.332 279.09 742.141 278.145 742.141 277.121Z" fill="white"/>
</g>
<defs>
<clipPath id="clip0_1_2">
<rect width="803" height="313" fill="white"/>
</clipPath>
</defs>
</svg>
